<svg xmlns="http://www.w3.org/2000/svg" xmlns:xlink="http://www.w3.org/1999/xlink" viewBox="0 0 66 57" fill="#fff" fill-rule="evenodd" stroke="#000" stroke-linecap="round" stroke-linejoin="round"><use xlink:href="#F" x=".5" y=".5"/><defs><linearGradient id="A" x1="48.34%" y1="1.78%" x2="48.34%" y2="100.00%"><stop offset="0%" stop-color="#f29100"/><stop offset="100%" stop-color="#ec670f"/></linearGradient><linearGradient id="B" x1="49.99%" y1="0.00%" x2="49.99%" y2="99.98%"><stop offset="0%" stop-color="#f29100"/><stop offset="100%" stop-color="#ec670f"/></linearGradient><linearGradient id="C" x1="50.00%" y1="0.00%" x2="50.00%" y2="100.00%"><stop offset="0%" stop-color="#f29100"/><stop offset="100%" stop-color="#ec670f"/></linearGradient><linearGradient id="D" x1="50.00%" y1="-0.00%" x2="50.00%" y2="100.00%"><stop offset="0%" stop-color="#f29100"/><stop offset="100%" stop-color="#ec670f"/></linearGradient><path id="E" d="M32.057 37.847l.01-.023c-.013-.06-.018-.077-.01.023z"/></defs><symbol id="F" overflow="visible"><g stroke="none" fill-rule="nonzero"><path d="M33.28 49.096c-.077-.55.076-1.098-.1-1.615-.142-.45-.464-.492-.68-.858-.563-.962-1.146-2.204-1.2-3.384-.05-1.057-.438-2.013-.49-3.06-.025-.506.034-1.027.016-1.528-.01-.244-.023-.455-.072-.72l-.075-.442.13-.328c-.058-.116 1.122-.075 1.474-.073l1.755.067c1.217.06 2.326.045 3.51-.138 2.64-.408 3.855-1.486 4.477-1.935 2.425-1.748 3.536-4.607 3.536-4.607.4-.89.398-2.486 1.256-3.2 1.01-.843 2.708-.782 3.87-1.3.68-.3 1.17-.466 1.863-.322.515.107 1.442.704 1.655-.133-.172-.11-.24-.314-.33-.426.957-.095.018-2.314-.36-2.758-.585-.684-1.56-.997-2.598-1.273-1.233-.327-2.35-.704-3.51-.476-2.026.397-1.875-.763-3.07-.763-1.433 0-3.983.07-4.424 1.464-.205.65-.417.678-.772 1.177-.304.428.053.805-.1 1.293-.158.5-.39 2.267-.63 2.884-.41 1.043-.896 2.345-1.795 2.345-1.26.155-2.25.2-3.274-.172l-2.157-.79c-2.354-.99-2.74-2.075-2.74-2.075-.252-.418-.918-1.1-1.167-1.97-.274-.967-.736-1.778-.923-2.28-.193-.522-.657-1.353-1.02-2.26-.466-1.16-1.12-2.02-1.6-2.447-.733-.657-1.41-1.665-2.897-1.37-.266.053-1.232.097-1.973.717-.502.425-.657 1.29-1.126 2.024-.27.424-.74 1.64-1.175 2.653-.3.703-.44 1.23-.765 1.488-.254.203-.568.464-.95.322-.232-.09-.49-.24-.743-.438-.348-.27-1.126-1.6-1.607-2.582-.416-.852-1.305-2.127-1.82-2.817-.74-.993-1.174-1.245-2.267-1.245-2.345 0-2.523 1.313-3.555 3.223-.453.84-.618 2.17-1.528 3.214-.52.6-2.18 3.06-3.332 3.473v-.012L0 25.658l.003 17.4a5.83 5.83 0 0 1 .244-.643c.446-.95 1.48-1.832 2.057-2.81.31-.532.67-1.053.877-1.61.178-.48.266-1.198.523-1.615.315-.512.81-.685 1.317-.768.794-.13 1.47 1.142 2.486 1.61.433.2 2.428.905 3.027 1.05l3.08.635c.536.108 1.05.17 1.6.227.495.05 2.35.11 2.465.245-.943.48-1.496 1.83-1.85 2.786l-1.073 3.077c-.495 1.076-1.53 1.523-1.407 2.777.048.5.14 1.024.055 1.575-.09.58-.323 1.032-.494 1.6-.22.74-.48 3.13-.817 3.834l2.067-.26c.225-.536.433-2.798.502-3.013.386-1.134.898-2.068 1.686-2.945.768-.85.728-1.956 1.176-2.952.486-1.082 1.14-1.948 1.755-2.965 1.113-1.84 1.848-4.162 4.216-4.64.253-.052 1.703.993 2.346 1.615.737.708 1.542 1.528 2.026 2.505.937 1.893 1.732 4.634 2.033 6.147.173.868.3.92.898 1.608.27.315.8 1.3.987 1.678.186.404.47 1.322.696 1.79.133.28.478 1.136.73 1.877l1.928-.06c.007.016.04-.005.05.01l-.02-.048c-.96-1.928-1.575-4.158-1.893-6.294z"/><use xlink:href="#E" fill="#484444"/><use xlink:href="#E" fill="url(#A)"/><path d="M32.486 53.61c-.226-.47-.51-1.392-.696-1.79-.178-.378-.717-1.362-.987-1.678-.588-.688-.725-.74-.898-1.608-.3-1.508-1.096-4.254-2.033-6.147-.484-.976-1.29-1.797-2.026-2.505-.643-.62-2.093-1.667-2.346-1.615-2.368.473-3.102 2.795-4.216 4.64-.616 1.017-1.27 1.883-1.755 2.965-.448.995-.41 2.098-1.176 2.952-.787.877-1.3 1.81-1.685 2.945-.077.215-.28 2.477-.503 3.013l3.52-.247c3.28.223 2.332 1.48 7.45 1.206l8.082-.25-.73-1.877z" fill="url(#B)"/><path d="M55.938 0H8.067C3.615.001.006 3.61.005 8.063v17.592c1.154-.418 2.813-2.872 3.332-3.468.9-1.044 1.075-2.375 1.528-3.214 1.032-1.9 1.21-3.223 3.555-3.223 1.093 0 1.527.252 2.267 1.245.514.7 1.403 1.965 1.82 2.817.48.983 1.263 2.314 1.607 2.582.255.2.507.35.743.438.38.143.695-.12.95-.322.325-.26.465-.786.765-1.488.434-1.014.906-2.23 1.175-2.653.465-.733.624-1.603 1.126-2.024.74-.62 1.707-.665 1.973-.717 1.488-.294 2.165.717 2.897 1.37.48.428 1.135 1.29 1.6 2.447.363.903.827 1.74 1.02 2.26.187.503.65 1.314.923 2.28.25.878.914 1.55 1.167 1.97 0 0 .387 1.084 2.74 2.075.5.215 1.542.564 2.157.79 1.023.37 2.013.323 3.274.172.9 0 1.386-1.302 1.795-2.345.242-.616.473-2.382.63-2.884.153-.488-.205-.865.1-1.293.356-.503.567-.526.772-1.177.44-1.393 2.99-1.464 4.424-1.464 1.198 0 1.043 1.16 3.07.763 1.16-.232 2.28.15 3.51.476 1.038.275 2.013.59 2.598 1.273.38.443 1.317 2.663.36 2.758.092.116.16.315.33.426-.213.837-1.14.24-1.654.133-.694-.144-1.184.022-1.863.322-1.16.517-2.858.456-3.87 1.3-.858.714-.856 2.307-1.256 3.2 0 0-1.11 2.858-3.536 4.607-.62.448-1.836 1.527-4.477 1.935-1.185.183-2.294.198-3.51.138l-1.755-.067c-.348-.003-1.532-.04-1.474.073l-.13.328c.02.108.063.377.075.442.048.265.062.476.072.72.018.5-.04 1.022-.016 1.528.053 1.044.442 2.003.49 3.06.054 1.177.636 2.423 1.2 3.384.214.366.54.408.68.858.166.516.01 1.064.1 1.615.317 2.134.928 4.365 1.893 6.292a.46.46 0 0 0 .023.047c1.187-.2 2.376-.625 3.918-.853 2.828-.42 6.76-.203 9.286-.44 6.39-.6 9.86 2.62 15.6 1.3V8.063C64 3.61 60.392 0 55.938 0zm-23.88 37.847c-.01-.097-.005-.083.01-.023z" fill="url(#C)"/><path d="M14.76 45.25c.446-.973.704-2.082 1.073-3.077.354-.955.907-2.305 1.85-2.786-.115-.134-1.97-.196-2.465-.245l-1.6-.227-3.08-.635c-.6-.145-2.6-.85-3.027-1.05-1.017-.468-1.69-1.742-2.486-1.61-.507.083-1.005.257-1.317.768-.258.417-.345 1.134-.523 1.615-.207.558-.565 1.08-.877 1.61-.575.976-1.6 1.858-2.057 2.81a6.05 6.05 0 0 0-.243.642v10.868l1.674.36c4.496 1.2 5.594 1.3 10.004.797l.414-.055c.337-.704.598-3.094.817-3.835.17-.568.405-1.02.494-1.6.084-.55-.008-1.075-.055-1.575-.122-1.253.914-1.7 1.41-2.777z" fill="url(#D)"/></g></symbol></svg>